# xmcd
#
# Track frame offsets:
#	150
#	19040
#	38592
#	57735
#	81550
#	97462
#	119230
#	136850
#	154367
#	174922
#	193345
#	212325
#	231750
# Disc length: 3368 seconds
# Revision: 1
# Processed by: cddbd v1.5.2PL0 Copyright (c) Steve Scherf et al.
#
# Submitted via: libkcddb 0.31
#
DISCID=bf0d260d
DTITLE=Josh Groban - Noel
DYEAR=2007
DGENRE=Classical
TTITLE0=Silent Night
TTITLE1=Little Drummer Boy
TTITLE2=I'll Be Home For Christmas
TTITLE3=Ave Maria
TTITLE4=Angels We Have Heard On High
TTITLE5=Thankful
TTITLE6=The Christmas Song
TTITLE7=What Child Is This
TTITLE8=The First Noel
TTITLE9=Petit Papa Noel
TTITLE10=It Came Upon A Midnight Clear
TTITLE11=Panis Angelicus
TTITLE12=O Come All Ye Faithful
EXTD=YEAR: 2007
EXTT0=
EXTT1=
EXTT2=
EXTT3=
EXTT4=
EXTT5=
EXTT6=
EXTT7=
EXTT8=
EXTT9=
EXTT10=
EXTT11=
EXTT12=
PLAYORDER=
